<svg xmlns="http://www.w3.org/2000/svg" viewBox="0 0 7410 3900">
  <path fill="#b22234" d="M0 0h7410v3900H0z"/>
  <path stroke="#fff" stroke-width="300" d="M0 450h7410M0 1050h7410M0 1650h7410M0 2250h7410M0 2850h7410M0 3450h7410"/>
  <path fill="#3c3b6e" d="M0 0h2964v2100H0z"/>
  <g fill="#fff">
    <circle cx="247" cy="210" r="70"/><circle cx="741" cy="210" r="70"/><circle cx="1235" cy="210" r="70"/><circle cx="1729" cy="210" r="70"/><circle cx="2223" cy="210" r="70"/><circle cx="2717" cy="210" r="70"/>
    <circle cx="494" cy="420" r="70"/><circle cx="988" cy="420" r="70"/><circle cx="1482" cy="420" r="70"/><circle cx="1976" cy="420" r="70"/><circle cx="2470" cy="420" r="70"/>
    <circle cx="247" cy="630" r="70"/><circle cx="741" cy="630" r="70"/><circle cx="1235" cy="630" r="70"/><circle cx="1729" cy="630" r="70"/><circle cx="2223" cy="630" r="70"/><circle cx="2717" cy="630" r="70"/>
    <circle cx="494" cy="840" r="70"/><circle cx="988" cy="840" r="70"/><circle cx="1482" cy="840" r="70"/><circle cx="1976" cy="840" r="70"/><circle cx="2470" cy="840" r="70"/>
    <circle cx="247" cy="1050" r="70"/><circle cx="741" cy="1050" r="70"/><circle cx="1235" cy="1050" r="70"/><circle cx="1729" cy="1050" r="70"/><circle cx="2223" cy="1050" r="70"/><circle cx="2717" cy="1050" r="70"/>
    <circle cx="494" cy="1260" r="70"/><circle cx="988" cy="1260" r="70"/><circle cx="1482" cy="1260" r="70"/><circle cx="1976" cy="1260" r="70"/><circle cx="2470" cy="1260" r="70"/>
    <circle cx="247" cy="1470" r="70"/><circle cx="741" cy="1470" r="70"/><circle cx="1235" cy="1470" r="70"/><circle cx="1729" cy="1470" r="70"/><circle cx="2223" cy="1470" r="70"/><circle cx="2717" cy="1470" r="70"/>
    <circle cx="494" cy="1680" r="70"/><circle cx="988" cy="1680" r="70"/><circle cx="1482" cy="1680" r="70"/><circle cx="1976" cy="1680" r="70"/><circle cx="2470" cy="1680" r="70"/>
    <circle cx="247" cy="1890" r="70"/><circle cx="741" cy="1890" r="70"/><circle cx="1235" cy="1890" r="70"/><circle cx="1729" cy="1890" r="70"/><circle cx="2223" cy="1890" r="70"/><circle cx="2717" cy="1890" r="70"/>
  </g>
</svg>
